HIERARCHY
ROOT Hips
{
	OFFSET 0.000000 0.000000 0.000000
	CHANNELS 6 Xposition Yposition Zposition Zrotation Yrotation Xrotation 
	JOINT LeftUpLeg_virtual
	{
		OFFSET 0.000000 0.000000 0.000000
		CHANNELS 3 Zrotation Yrotation Xrotation
		JOINT LeftUpLeg
		{
			OFFSET 8.479694 -4.795517 -0.379053
			CHANNELS 3 Zrotation Yrotation Xrotation
			JOINT LeftLeg
			{
				OFFSET 0.485052 -32.551468 0.112863
				CHANNELS 3 Zrotation Yrotation Xrotation
				JOINT LeftFoot
				{
					OFFSET 0.438033 -32.635670 -3.012641
					CHANNELS 3 Zrotation Yrotation Xrotation
					JOINT LeftToeBase
					{
						OFFSET 0.970169 -13.225353 11.864223
						CHANNELS 3 Zrotation Yrotation Xrotation
						End Site
						{
							OFFSET 0.000000 0.000000 0.000000
						}
					}
				}
			}
		}
	}
	JOINT RightUpLeg_virtual
	{
		OFFSET 0.000000 0.000000 0.000000
		CHANNELS 3 Zrotation Yrotation Xrotation
		JOINT RightUpLeg
		{
			OFFSET -8.479694 -4.795517 -0.379053
			CHANNELS 3 Zrotation Yrotation Xrotation
			JOINT RightLeg
			{
				OFFSET -0.484100 -32.551483 0.112903
				CHANNELS 3 Zrotation Yrotation Xrotation
				JOINT RightFoot
				{
					OFFSET -0.438985 -32.635651 -3.012681
					CHANNELS 3 Zrotation Yrotation Xrotation
					JOINT RightToeBase
					{
						OFFSET -0.970169 -13.225354 11.864223
						CHANNELS 3 Zrotation Yrotation Xrotation
						End Site
						{
							OFFSET 0.000000 0.000000 0.000000
						}
					}
				}
			}
		}
	}
	JOINT Spine_virtual
	{
		OFFSET 0.000000 0.000000 0.000000
		CHANNELS 3 Zrotation Yrotation Xrotation
		JOINT Spine
		{
			OFFSET 0.000000 7.722015 1.166203
			CHANNELS 3 Zrotation Yrotation Xrotation
			JOINT Spine1
			{
				OFFSET 0.000000 12.024086 0.248766
				CHANNELS 3 Zrotation Yrotation Xrotation
				JOINT Spine2
				{
					OFFSET -0.000000 11.503036 -0.491240
					CHANNELS 3 Zrotation Yrotation Xrotation
					JOINT Neck_virtual
					{
						OFFSET 0.000000 0.000000 0.000000
						CHANNELS 3 Zrotation Yrotation Xrotation
						JOINT Neck
						{
							OFFSET 0.000000 18.430687 -3.123054
							CHANNELS 3 Zrotation Yrotation Xrotation
							JOINT Head
							{
								OFFSET -0.000000 9.051071 1.034021
								CHANNELS 3 Zrotation Yrotation Xrotation
								End Site
								{
									OFFSET 0.000000 0.000000 0.000000
								}
							}
						}
					}
					JOINT LeftShoulder_virtual
					{
						OFFSET 0.000000 0.000000 0.000000
						CHANNELS 3 Zrotation Yrotation Xrotation
						JOINT LeftShoulder
						{
							OFFSET 6.197824 13.665230 -4.064723
							CHANNELS 3 Zrotation Yrotation Xrotation
							JOINT LeftArm
							{
								OFFSET 7.778132 -0.187073 -1.709282
								CHANNELS 3 Zrotation Yrotation Xrotation
								JOINT LeftForeArm
								{
									OFFSET 21.954697 0.000000 -2.041093
									CHANNELS 3 Zrotation Yrotation Xrotation
									JOINT LeftHand
									{
										OFFSET 22.992908 0.000000 -0.870901
										CHANNELS 3 Zrotation Yrotation Xrotation
										End Site
										{
											OFFSET 0.000000 0.000000 0.000000
										}
									}
								}
							}
						}
					}
					JOINT RightShoulder_virtual
					{
						OFFSET 0.000000 0.000000 0.000000
						CHANNELS 3 Zrotation Yrotation Xrotation
						JOINT RightShoulder
						{
							OFFSET -6.197824 13.665230 -4.064723
							CHANNELS 3 Zrotation Yrotation Xrotation
							JOINT RightArm
							{
								OFFSET -7.778132 -0.187073 -1.709282
								CHANNELS 3 Zrotation Yrotation Xrotation
								JOINT RightForeArm
								{
									OFFSET -21.954697 0.000000 -2.041093
									CHANNELS 3 Zrotation Yrotation Xrotation
									JOINT RightHand
									{
										OFFSET -22.992908 0.000000 -0.870901
										CHANNELS 3 Zrotation Yrotation Xrotation
										End Site
										{
											OFFSET 0.000000 0.000000 0.000000
										}
									}
								}
							}
						}
					}
				}
			}
		}
	}
}
MOTION
Frames: 8
Frame Time: 0.033333
-27.507395 80.080627 -94.214211 0.636724 -69.175295 -0.656621 -5.613246 -1.010785 15.496794 -4.897768 -4.931324 -34.463120 11.072020 4.251249 31.714600 -3.114277 -4.010170 -8.782418 0.000000 0.000000 0.000000 -2.459463 -1.592393 15.211502 -5.205808 -1.803389 -30.830924 0.233965 4.116554 62.929729 10.137490 9.218538 -2.416356 0.000000 0.000000 0.000000 -1.575632 2.741780 1.803923 -0.381055 0.158517 -6.569325 -0.564800 -2.632258 3.921076 -0.004810 0.040030 0.018614 -1.160342 -0.887197 6.924037 -6.429366 -2.924389 0.313152 0.000000 0.000000 0.000000 0.917574 -0.157694 3.899516 -3.934836 -3.259443 4.794413 -63.262564 18.894446 61.370001 0.526282 -48.258531 12.352012 0.000000 0.000000 0.000000 -4.173067 1.474003 2.980662 39.486249 7.855998 16.635409 48.044565 -26.623220 41.105222 -10.090086 50.396476 3.297638 0.000000 0.000000 0.000000 
-29.399149 80.224129 -92.940697 0.255199 -68.360344 -0.262217 -6.050036 0.075337 15.301719 -4.753646 -4.824184 -32.177458 10.749972 4.188658 31.415141 -3.834585 -4.279160 -10.414625 0.000000 0.000000 0.000000 -2.664041 -0.689706 15.065335 -4.186192 -1.295388 -36.178252 0.247493 4.477615 63.171798 9.645048 9.383073 -2.553815 0.000000 0.000000 0.000000 -1.896575 3.481707 1.577041 0.014604 -0.241088 -6.199543 -0.534943 -2.840157 3.968026 0.001500 0.029900 0.039341 -1.213684 -1.057684 7.014238 -6.725916 -3.143014 0.276584 0.000000 0.000000 0.000000 0.923921 -0.387251 4.019996 -4.228062 -3.596874 4.846625 -63.044149 18.053057 62.434425 0.617284 -47.842381 12.218799 0.000000 0.000000 0.000000 -4.143366 1.248807 3.085178 39.205901 7.221288 15.959003 48.708046 -27.145805 39.490064 -9.737438 49.452738 3.740167 0.000000 0.000000 0.000000 
-31.353859 80.321297 -91.719612 0.247897 -67.209738 -0.205451 -6.495078 0.776417 15.315779 -4.573964 -4.719305 -29.952166 10.426487 4.091476 30.789120 -4.570269 -4.633268 -11.754167 0.000000 0.000000 0.000000 -2.872660 0.104040 15.002604 -3.343383 -0.488794 -40.567075 0.011445 4.551838 60.282614 9.573179 9.389324 -1.959215 0.000000 0.000000 0.000000 -2.331428 4.055691 1.443065 0.356675 -0.570586 -5.800567 -0.469262 -3.061593 4.033100 -0.007335 -0.017102 -0.041396 -1.199915 -1.287651 7.228426 -6.943912 -3.338390 0.113937 0.000000 0.000000 0.000000 0.995657 -0.613987 4.175124 -4.469538 -3.845729 4.973577 -62.921670 17.292818 63.250038 0.674857 -47.728935 12.235243 0.000000 0.000000 0.000000 -4.068782 1.078963 3.368526 38.864275 6.695900 15.424456 49.293885 -27.334485 38.219686 -9.544655 48.120486 4.034252 0.000000 0.000000 0.000000 
-33.307980 80.336983 -90.541252 0.115734 -65.662051 -0.106081 -6.826496 1.090553 15.475590 -4.374357 -4.525309 -27.831368 10.156006 3.840874 30.309197 -5.195117 -5.065194 -13.139980 0.000000 0.000000 0.000000 -2.932716 0.444409 15.001003 -2.522699 0.389271 -43.930465 -0.441310 4.703560 54.834852 9.943150 9.218487 -0.566628 0.000000 0.000000 0.000000 -2.667549 4.463215 1.484290 0.654749 -0.714088 -5.399219 -0.389263 -3.188553 4.104735 -0.027533 -0.014282 -0.023036 -1.181920 -1.453410 7.394626 -6.948310 -3.601529 0.020200 0.000000 0.000000 0.000000 1.009046 -0.820765 4.361210 -4.649972 -4.158605 5.095373 -62.724858 16.613605 63.909943 0.704306 -47.894734 12.319581 0.000000 0.000000 0.000000 -4.009433 0.882333 3.489701 38.622561 6.193093 15.058697 49.798404 -27.359870 37.117912 -9.214744 46.748854 4.517800 0.000000 0.000000 0.000000 
-35.244511 80.272011 -89.368935 0.047660 -63.882138 -0.058514 -7.090919 1.165998 15.670476 -4.246311 -4.137398 -25.944216 9.919508 3.397517 30.165930 -5.716502 -5.688118 -14.533471 0.000000 0.000000 0.000000 -2.929637 0.544118 15.048455 -1.720936 1.271651 -46.558466 -0.929442 4.777545 47.925641 10.505050 8.837878 1.236601 0.000000 0.000000 0.000000 -2.898965 4.604916 1.598477 0.873733 -0.706946 -5.007193 -0.328048 -3.280544 4.174742 -0.014881 -0.023858 0.000702 -1.160015 -1.543210 7.480744 -6.852257 -3.820931 -0.112114 0.000000 0.000000 0.000000 1.032623 -0.981037 4.344819 -4.851782 -4.225294 5.403144 -62.545695 16.017118 64.272729 0.869348 -48.316686 12.446952 0.000000 0.000000 0.000000 -3.946371 0.730600 3.596932 38.339771 5.938738 14.946040 50.158549 -27.056669 36.418565 -8.893020 45.440992 5.065721 0.000000 0.000000 0.000000 
-37.157875 80.163254 -88.177147 -0.165600 -61.794429 0.171867 -7.259841 1.077472 16.036857 -3.970456 -3.883336 -24.380125 9.578607 2.798579 30.150828 -5.944609 -6.364756 -15.673232 0.000000 0.000000 0.000000 -2.878336 0.390323 15.088950 -0.987001 2.325750 -48.843263 -1.492773 4.617910 41.006287 11.159833 8.317850 2.995844 0.000000 0.000000 0.000000 -2.958995 4.526612 1.752138 1.045322 -0.568170 -4.711142 -0.299792 -3.338516 4.177105 -0.013972 -0.014930 0.003801 -1.159023 -1.691589 7.617106 -6.631828 -3.937226 -0.240620 0.000000 0.000000 0.000000 1.003343 -0.998966 4.371080 -4.949136 -4.127475 5.713589 -62.213352 15.456021 64.268972 0.815057 -48.725207 12.859534 0.000000 0.000000 0.000000 -3.978592 0.754430 3.679638 38.116117 5.723192 14.848650 50.463920 -26.774249 36.178911 -8.645752 44.590286 5.403152 0.000000 0.000000 0.000000 
-39.076611 80.016075 -86.906815 -0.190619 -59.278952 0.188453 -7.360101 1.117406 16.553360 -3.636545 -3.946269 -22.979447 9.095411 1.780103 30.286657 -5.831493 -7.068754 -16.556875 0.000000 0.000000 0.000000 -3.018549 0.115297 15.275349 -0.363472 3.380145 -50.870798 -1.922094 4.120094 35.193007 11.550747 7.676555 4.376903 0.000000 0.000000 0.000000 -2.900909 4.347569 2.011737 1.155971 -0.343612 -4.459231 -0.353348 -3.378376 4.204918 -0.019108 -0.023945 -0.018510 -1.177295 -1.807165 7.662164 -6.340912 -4.032782 -0.343285 0.000000 0.000000 0.000000 0.972596 -1.026116 4.400758 -4.945611 -3.942567 5.983737 -61.828204 15.121576 64.099775 0.786237 -49.023806 13.356469 0.000000 0.000000 0.000000 -4.034678 0.714966 3.702503 37.990742 5.630598 14.948928 50.765231 -26.426453 36.184901 -8.361552 44.189623 5.632550 0.000000 0.000000 0.000000 
-41.038818 79.853668 -85.562828 -0.326211 -56.482167 0.406732 -7.320648 1.178821 16.927215 -3.188771 -4.270610 -21.748866 8.488178 0.384929 30.774240 -5.358975 -7.693606 -17.208774 0.000000 0.000000 0.000000 -3.001768 -0.213967 15.533797 0.173417 4.168387 -52.665628 -2.205773 3.635654 31.241200 11.694901 7.110591 5.171869 0.000000 0.000000 0.000000 -2.645188 4.106497 2.371126 1.292689 -0.099238 -4.417337 -0.389061 -3.430669 4.082373 -0.092625 -0.042875 -0.009271 -1.204840 -1.759353 7.705558 -5.944457 -4.148889 -0.363137 0.000000 0.000000 0.000000 0.944169 -1.052626 4.451461 -4.984411 -3.696540 6.199125 -61.476709 14.889324 63.525738 0.784517 -49.183796 13.856553 0.000000 0.000000 0.000000 -4.127557 0.687303 3.690628 37.979929 5.714472 15.169601 50.934763 -26.032991 36.642339 -8.260270 44.170447 5.740382 0.000000 0.000000 0.000000 
